<svg width="32" height="30" viewBox="0 0 32 30" fill="none" xmlns="http://www.w3.org/2000/svg">
<path d="M31.2291 7.23077C30.5455 6.86154 29.8327 6.55385 29.0909 6.29231V24.8C27.4327 24.1692 25.7309 23.8462 24 23.8462C21.2364 23.8462 18.5018 24.6769 16 26.2769V7.66154C13.6436 6.23077 10.9236 5.38462 8 5.38462C5.39636 5.38462 2.93818 6.06154 0.770909 7.23077C0.290909 7.47692 0 8.01538 0 8.58462V27.1692C0 28.0615 0.683636 28.6923 1.45455 28.6923C1.68727 28.6923 1.92 28.6308 2.15273 28.5077C3.91273 27.5385 5.89091 26.9231 8 26.9231C11.0109 26.9231 13.7891 28.1846 16 30C18.2109 28.1846 20.9891 26.9231 24 26.9231C26.1091 26.9231 28.0873 27.5385 29.8473 28.5231C30.08 28.6462 30.3127 28.7077 30.5455 28.7077C31.3018 28.7077 32 28.0769 32 27.1846V8.58462C32 8.01538 31.7091 7.47692 31.2291 7.23077ZM13.0909 24.8C11.4327 24.1692 9.73091 23.8462 8 23.8462C6.26909 23.8462 4.56727 24.1692 2.90909 24.8V9.55385C4.52364 8.83077 6.22545 8.46154 8 8.46154C9.74545 8.46154 11.4764 8.84615 13.0909 9.56923V24.8ZM26.1818 0L18.9091 7.69231V22.3077L26.1818 15.3846V0Z" fill="#4F2EE8"/>
</svg>
